<svg xmlns="http://www.w3.org/2000/svg" viewBox="0 0 1870.41 426.35"><defs><style>.cls-1{fill:#b3b3b3;}</style></defs><title>Header_Background</title><g id="Layer_2" data-name="Layer 2"><g id="svg8"><path id="path1064" class="cls-1" d="M98.6,0C65.79,2.24,32.9,4.45,0,6.81v6.54C57.57,9.26,121.52,5.13,189.79,0ZM573.32,0C545,6.3,516.12,11.88,486.49,16.81c-85.91,14.3-173.28,22.54-264.08,29.3C148.83,51.58,74.33,56.1,0,61.65v6.26c51.76-3.9,102.87-7.14,177.56-12.3C273.88,48.94,383,40.6,488.33,23.2,527.66,16.71,565.86,9.08,603.51,0ZM782.76,0c-20.11,7.36-40.54,14.3-61.44,20.8-80.53,25.07-161.93,42-249.38,54.2-86.81,12.14-175.56,19.08-266.49,25.37C133.88,105.32,68.53,109.43,0,115v6.14c47.57-3.87,98-7.4,160.31-11.61,95-6.43,208.1-13.82,313.34-28.4C584.44,65.74,687.74,42.65,793.24,3.42Q797.8,1.73,802.32,0ZM933,0C860.34,34.27,787.85,61.53,709,82.94c-81.8,22.19-164.69,36.54-253.12,46.93-87.4,10.28-177.75,16.39-268.44,22.63C123,156.93,62,161.2,0,166.72v5.93c42.91-3.85,89-7.44,142.1-11.2,92-6.51,211.8-13.72,315.32-25.8C569.24,122.6,675,103,781.89,67.74A1367,1367,0,0,0,948.54,0Zm124.46,0c-41.17,22.45-82.67,43.31-126.18,62.46a1326.42,1326.42,0,0,1-236.35,78.66c-168.15,39.25-340.87,48-526.56,61.55C111,206.86,55.54,211.29,0,216.8v5.73c37.79-3.79,78.28-7.36,123-10.86C220.82,204,329.13,198,439.66,187c112.63-11.24,220.85-27.61,329.26-58.92C878.27,96.49,972.79,54.15,1070.91,0Zm110.41,0q-12.9,7.61-26.06,15.21c-1.81,1.05-3.62,2.07-5.43,3.11L432.46,229l-13.31,1.21c-89.14,7.87-180.09,13.51-270.73,20.91-50.3,4.1-99.48,8.64-148.42,14.08v5.53c32.22-3.62,66.37-7.07,103-10.36,106.43-9.37,199-14.8,304.33-23.86l-98.8,29.57c-31.43,2.36-63.13,4.7-95.16,7.22C140.64,279,70.74,285.27,0,293.69v5.41c50.5-6.08,105.24-11.6,167.94-16.92,37.58-3.18,77.08-6.13,117.33-9.13L188.63,302C128.2,307.16,68.8,313,7.38,320.68L0,321.62v5.31c50.89-6.56,103.82-12.25,164.6-17.77L54.89,342Q27.44,345.29,0,349v5.22c8.27-1.13,16.59-2.27,25.37-3.4L0,358.42H0l25.43-7.61q6.63-.87,13.47-1.72c53.44-6.73,106.26-12.24,167.19-17.72l-105,31.43Q50.27,368.71,0,375.9V381c21.86-3.18,46.17-6.5,73.15-9.86L0,393.06H0l73.21-21.91c9.43-1.18,19.11-2.36,29.17-3.54,50-5.86,97-10.53,150.59-15.28L151.58,382.53C100.53,388.25,50.16,394.74,0,402.39v5.06c32.31-5,73.61-10.85,124.93-17L4.45,426.35h0L125,390.46c13-1.55,26.39-3.11,40.67-4.69,48.53-5.34,91.11-9.37,139.1-13.58L206,401.3c-64.73,7-128,15-192,25.05H46.58c3.54-.53,6.43-1,10.32-1.54,32-4.65,72.51-10.12,123.41-15.95L121,426.35H121l59.38-17.5c15.2-1.74,31.22-3.51,48.35-5.31,51.18-5.36,89.71-8.85,132.91-12.61l-97.8,28.32q-32.48,3.39-64.49,7.1H240.3c16-1.76,33.05-3.57,51.34-5.42,39.91-4,84.47-8,132-12.29L361,426.35h.09l62.73-17.72c39.61-3.56,81.2-7.3,124.8-11.54,95.63-9.29,200.39-21.32,303.59-43.73C959.05,330.15,1055.67,298,1157.46,250c67.49-31.8,128.41-66.14,190.69-102.48l90.2-25.48c-24.42,14.17-48.69,28.38-73,42.43C1291.28,207.3,1221.63,245.8,1145,279.81a1380,1380,0,0,1-235,80.26C827.4,380.35,743.69,393.54,655,404c-72,8.5-149.87,15.41-225.13,22.36H478c41.85-3.88,86.24-8.11,132.52-13.05,95.59-10.19,198.18-23.77,300.6-48.71,105.77-25.75,200.45-60.68,301.69-110.89,88.1-43.7,163.34-89.51,247.52-137.86l100.13-28.29c-47.58,25.26-93.66,51.76-139.94,78.33-74.75,42.93-143.72,82.29-219.91,118.1-75.68,35.57-150.35,63.68-232.29,86.06-81.62,22.29-164.15,37.17-252.15,48.81q-30.17,4-61,7.5h36c89.64-11.07,183.52-26.11,278.3-51.78C1074.2,346.2,1167,308.69,1268,256.57c97.65-50.41,193.79-110.16,293.56-163.07q13-6.91,26.08-13.61L1870.41,0h0L1587.64,79.87c41.55-21.35,83.14-41,126.4-58.71Q1741.55,9.87,1769,0h-17.44c-35.48,13.31-70.1,28-104.56,44.17-29.61,13.86-58.33,28.39-86.53,43.36l-100.13,28.28c14.47-8.3,29.16-16.67,44.27-25.13,45.32-25.38,89-48.42,132.94-69.23L1711.64,0h0l-74,21.44Q1661.15,10.29,1684.92,0h-14.65q-33.21,14.75-65.8,31l-111.89,32.4C1532.92,40.62,1572.17,19.49,1612,0h-13.16c-22.81,11.36-45.39,23.2-68,35.51q-31.26,17.06-61.82,34.73l-92.92,26.91c5.67-3.37,11.26-6.7,17-10.1,43.4-25.79,84.51-49.91,125.53-72.5L1568.07,0h0L1518.7,14.54Q1532.13,7.16,1545.57,0h-12.33q-20,10.79-39.82,22l-97.14,28.62c29.35-17.51,58-34.4,86.56-50.61h-11.79q-26.33,15-52.6,30.65c-15.08,8.93-29.81,17.75-44.41,26.51l-92.33,27.2,1.46-.86c44.29-26.39,84.9-51.27,125-75.15l28-8.35h0l-28,8.35q7.05-4.2,14.08-8.35h-11.52q-12.68,7.52-25.34,15.13L1291.86,43c23.8-14.36,47.47-28.76,71-43h-11.71q-21.66,13.13-43.38,26.34c-13.06,7.94-26,15.73-38.78,23.45l-99.68,29.68,3.75-2.11c40.63-23.12,80.55-47.24,120.05-71.28L1313.45,0h0l-20.28,6.07,10-6.07h-11.74l-21.34,13-99.49,29.77c24.24-14,48.21-28.37,72-42.76h-12Q1214,10,1197.38,19.92q-26.45,15.69-52.5,30.53L1018,88.41q21.78-10.53,43.62-21.91C1095.5,48.86,1129,30,1162,10.66L1197.62,0h0L1162,10.66q9.06-5.31,18.08-10.66ZM1270,13q-8.68,5.28-17.38,10.55c-36.93,22.31-72.93,43.56-109.27,63.66l-133.47,39.74c36-16.51,71.62-34.58,107.69-54.31q26.7-14.61,52.94-29.86Zm115.35,2.15q-11.17,6.7-22.38,13.46C1327.54,50,1293.35,70.84,1259.16,91L1157.48,121c23.45-12.76,46.93-26.11,70.76-40.06,21.33-12.49,42.51-25.18,63.6-37.9Zm-249,3.19c-52.78,30.33-104.53,57.72-158.52,82.1L631.05,204.21c-64.67,11-130.47,18.57-198.56,24.78Zm357,3.67q-9.53,5.37-19.05,10.82c-40.57,23.24-80.33,47.09-119.86,70.6l-92.1,26.67c24.93-14.39,50-29.27,75.7-44.65C1358,73.5,1377.26,62,1396.26,50.62Zm111,9q-8,4-16.07,8.1c-51.67,26.37-101.12,54.53-150,82.88l-90.2,25.48c32.7-19.08,65.78-38.71,100.4-58.84,14.86-8.63,29.47-17,44-25.21ZM1269,49.8c-46.35,27.88-91.67,54.36-138.68,79.16L978.17,173.79c65.51-26.8,127.43-58.19,191.16-94.31Zm-124.15.66c-54.94,31.18-109.51,59.45-167.8,84.6q-6.55,2.83-13.13,5.58L688.08,222.78c-71.85,13.75-144.94,22.89-219.56,30.08l123.4-36.93c54.43-8,108.47-18.11,162.31-31.53,95.18-23.74,179.45-55.19,263.74-96ZM1374,57.18c-45.45,27.28-89.17,53.76-134.52,79.54l-107.09,31c49.93-25.39,98.68-53.23,149.28-83.35Zm95,13.07c-48.1,27.67-95.2,56-142.28,83.3l-94.2,26.61c47.68-26.07,94.55-53.86,143.56-83Zm-325.67,17c-35.77,19.78-71.87,38.46-109.51,55.94a1350.75,1350.75,0,0,1-130,52.55L790,229.23c-78.81,19.57-158.9,32.39-243.76,42.06q-16.46,1.88-33.11,3.6L643,236.22c57.46-9.37,114.35-21.31,171.21-37.27a1320.62,1320.62,0,0,0,195.71-72ZM1259.13,91c-37.28,22-74.57,43.22-113.54,63.57q-21.72,11.34-43.39,21.89L635.62,311.6c-63.56,8.52-128.29,14.71-194,20.3l99.77-29.39c23.25-2.47,46.23-5.11,68.5-8,111-14.39,215.66-35.33,321.6-72,80.92-28,153.28-61.92,226-101.52Zm-281.31,9.42c-19.11,8.63-38.5,16.89-58.33,24.76C841.9,156,763.85,178.53,679.16,195.37q-23.94,4.75-48,8.83Zm376.63,3c-33,19.62-65.8,39-98.79,57.57q-23.87,13.44-47.46,26l-120.87,34.14c60.86-27.37,117.5-57.87,175-91.07ZM1130.29,129q-19.9,10.52-40.29,20.62c-74.92,37.09-149.18,66.63-230.44,90-81,23.28-163.14,38.69-250.89,50.15q-20.34,2.65-40.91,5L716.52,250.9a1443.42,1443.42,0,0,0,156.7-39.27c36.4-11.4,71.11-24,104.86-37.8Zm109.18,7.76q-19.12,10.86-38.71,21.57c-50.62,27.6-100.4,52.15-152.17,73.81l-321,90.67c-74.15,12.51-149.69,20.86-227.28,28l105.9-30.67c22-2.67,43.8-5.55,65.25-8.74,110.07-16.32,212.69-40,317.38-79.74a1444.74,1444.74,0,0,0,143.49-63.88Zm-275.59,3.92c-72.23,30.27-144.94,53.42-223.7,71.27q-25.9,5.87-52,10.83Zm362.84,12.92q-8.13,4.71-16.26,9.38c-73.73,42.34-144.09,79.56-221.39,111.63-77,32-154.06,55.85-238,74.23-83.55,18.3-168.43,29.93-257.64,39.36-48.37,5.11-97.32,9.54-146.48,13.9l97.24-27.46c79.78-7.78,165.16-17.82,248.44-33.84,108-20.77,206.56-50.13,309.13-95.56,45.75-20.25,88.6-42,130.73-65Zm-224.58,22.93c-59.69,29-119.64,53.62-184.15,74.22-79.93,25.52-160.77,43-247.63,56q-17.26,2.58-34.64,4.9Zm106,10.56c-57.26,30.54-114.23,57.53-175.48,81-77.9,29.9-156.19,51.62-241.13,68.1-72.66,14.09-146.47,23.62-222.75,31.47l120.69-34.1q21.59-3.18,42.95-6.78c109-18.46,209.64-45,313.2-87.64q21.18-8.73,41.61-17.94Zm-304.57,8.72c-33.52,11.52-67.75,21.76-103.27,30.86-3.33.86-6.67,1.68-10,2.51Zm-311.7,20.15L468.48,252.86C416,257.92,362.71,262,308.6,266.07l98.8-29.57,13.05-1.13C478.13,230.29,535.21,224.26,591.87,215.94Zm456.61,16.23c-23.76,9.94-47.94,19.29-72.81,28-78.88,27.74-158.44,47.3-244.37,62l-3.5.59Zm-405.59,4.07L513.07,274.89c-54.66,5.66-110.71,10.2-166.75,14.54l97.19-29.09q20.33-1.84,40.79-3.87C537.91,251.14,590.63,244.76,642.89,236.24Zm73.5,14.68L567.68,294.73c-58.15,6.71-117.43,11.85-177.13,16.66l97.45-29c20.49-2,40.46-4,59.44-6.17C604.86,269.7,660.92,261.7,716.39,250.92Zm-272.92,9.43-97.19,29.08q-34.21,2.65-68.32,5.27c-30.26,2.35-59.89,4.73-89.29,7.26L285.3,273C336.67,269.2,389.48,265.24,443.47,260.35Zm44.48,22-97.45,29q-24.19,2-48.46,3.86c-38.44,3-75.64,6-112.59,9.15l94.37-28.24C376.7,292.07,434,287.54,488,282.37ZM323.78,296.16,229.4,324.41c-52.29,4.47-104.09,9.39-158.12,15.65Q63.11,341,54.94,342l109.7-32.84c21.55-1.95,44-3.89,67.81-5.83C259.7,301.09,291,298.7,323.78,296.16Zm217.48,6.36L441.5,331.91q-17.88,1.51-35.86,3c-44.87,3.69-87.46,7.06-130,10.68L368.27,318C423.44,313.63,483.19,308.67,541.26,302.52Zm-173,15.5-92.6,27.58c-46.08,3.93-92.06,8.15-140.68,13.41q-16.92,1.83-33.81,3.79l105-31.42c28.13-2.53,57.84-5.05,90.42-7.67C319.06,321.89,343.2,320,368.22,318Zm237.92,2.11L500.24,350.8q-15.69,1.44-31.5,2.83C418.58,358,373,361.7,327.2,365.6l92.1-27.13C478.84,333.52,543,327.8,606.14,320.13Zm83.18,13.47L568.65,367.69q-18.55,1.9-37.31,3.7c-48.75,4.66-98,8.83-147.35,13.09l93.47-27.07C545.14,351.42,617.81,344.17,689.32,333.6Zm-270.1,4.87-92.1,27.14c-41.45,3.53-83.14,7.25-128.75,11.91q-23.46,2.4-46.72,5L253,352.34c32.56-2.89,67.57-5.8,107.2-9C379.14,341.77,399,340.15,419.22,338.47Zm58.15,18.95L383.9,384.49c-40.75,3.52-81.59,7.1-122.34,11.09q-28,2.75-55.48,5.71l98.77-29.1c35.08-3.08,73-6.24,118.62-10.1C440.93,360.61,459,359.05,477.37,357.42Zm66.7,17.21L446.84,402.1c-40.7,3.61-81.53,7.19-122.34,11.09-20.42,1.95-40.54,4-60.52,6.05l97.79-28.32c34.91-3,72.63-6.25,124.49-10.9C505.11,378.33,524.43,376.54,544.07,374.63Z"/></g></g></svg>