<svg xmlns="http://www.w3.org/2000/svg" width="35.691" height="35.691" viewBox="0 0 35.691 35.691">
  <path id="Icon_material-rate-review" data-name="Icon material-rate-review" d="M35.122,3H6.569A3.564,3.564,0,0,0,3.018,6.569L3,38.691l7.138-7.138H35.122a3.58,3.58,0,0,0,3.569-3.569V6.569A3.58,3.58,0,0,0,35.122,3ZM10.138,24.415V20.007L22.416,7.729a.884.884,0,0,1,1.267,0l3.159,3.159a.884.884,0,0,1,0,1.267l-12.3,12.26Zm21.415,0H18.169l3.569-3.569h9.815Z" transform="translate(-3 -3)" fill="#10ccff"/>
</svg>
