<svg xmlns="http://www.w3.org/2000/svg" width="31.5" height="36" viewBox="0 0 31.5 36">
  <path id="Icon_awesome-building" data-name="Icon awesome-building" d="M30.656,33.75H29.25V1.688A1.687,1.687,0,0,0,27.563,0H3.938A1.687,1.687,0,0,0,2.25,1.688V33.75H.844A.844.844,0,0,0,0,34.594V36H31.5V34.594A.844.844,0,0,0,30.656,33.75ZM9,5.344A.844.844,0,0,1,9.844,4.5h2.813a.844.844,0,0,1,.844.844V8.156A.844.844,0,0,1,12.656,9H9.844A.844.844,0,0,1,9,8.156Zm0,6.75a.844.844,0,0,1,.844-.844h2.813a.844.844,0,0,1,.844.844v2.813a.844.844,0,0,1-.844.844H9.844A.844.844,0,0,1,9,14.906ZM12.656,22.5H9.844A.844.844,0,0,1,9,21.656V18.844A.844.844,0,0,1,9.844,18h2.813a.844.844,0,0,1,.844.844v2.813A.844.844,0,0,1,12.656,22.5ZM18,33.75H13.5V27.844A.844.844,0,0,1,14.344,27h2.813a.844.844,0,0,1,.844.844Zm4.5-12.094a.844.844,0,0,1-.844.844H18.844A.844.844,0,0,1,18,21.656V18.844A.844.844,0,0,1,18.844,18h2.813a.844.844,0,0,1,.844.844Zm0-6.75a.844.844,0,0,1-.844.844H18.844A.844.844,0,0,1,18,14.906V12.094a.844.844,0,0,1,.844-.844h2.813a.844.844,0,0,1,.844.844Zm0-6.75A.844.844,0,0,1,21.656,9H18.844A.844.844,0,0,1,18,8.156V5.344a.844.844,0,0,1,.844-.844h2.813a.844.844,0,0,1,.844.844Z" fill="#727070"/>
</svg>
