<svg xmlns="http://www.w3.org/2000/svg" width="163.198" height="141.66" viewBox="0 0 163.198 141.66">
  <g id="Group_6" data-name="Group 6" transform="translate(-512.802 -321.97)">
    <g id="Group_1" data-name="Group 1" transform="translate(454.802 321.97)">
      <g id="Group_2" data-name="Group 2" transform="translate(58)">
        <circle id="circle149" cx="70.829" cy="70.829" r="70.829" fill="#ccc"/>
        <path id="path151" d="M1324.773-20.963A45.4,45.4,0,0,0,1281.468,10.8a70.83,70.83,0,0,0,42.4,14.093,70.829,70.829,0,0,0,43.845-15.2,45.4,45.4,0,0,0-42.937-30.653Z" transform="translate(-1253.089 116.766)" fill="gray"/>
        <circle id="circle153" cx="20.886" cy="20.886" r="20.886" transform="translate(49.944 49.943)" fill="gray"/>
      </g>
    </g>
    <circle id="Ellipse_2" data-name="Ellipse 2" cx="23" cy="23" r="23" transform="translate(630 393)" fill="#1aceff"/>
    <path id="Icon_material-edit" data-name="Icon material-edit" d="M4.5,24.255v5.2H9.7L25.032,14.121l-5.2-5.2ZM29.053,10.1a1.381,1.381,0,0,0,0-1.955L25.808,4.9a1.381,1.381,0,0,0-1.955,0L21.317,7.439l5.2,5.2L29.053,10.1Z" transform="translate(635.942 398.946)" fill="#fff"/>
  </g>
</svg>
