<?xml version="1.0" encoding="UTF-8" standalone="no"?>
<svg
   xmlns:dc="http://purl.org/dc/elements/1.1/"
   xmlns:cc="http://creativecommons.org/ns#"
   xmlns:rdf="http://www.w3.org/1999/02/22-rdf-syntax-ns#"
   xmlns:svg="http://www.w3.org/2000/svg"
   xmlns="http://www.w3.org/2000/svg"
   xmlns:sodipodi="http://sodipodi.sourceforge.net/DTD/sodipodi-0.dtd"
   xmlns:inkscape="http://www.inkscape.org/namespaces/inkscape"
   width="494.87833mm"
   height="112.80396mm"
   viewBox="0 0 494.87833 112.80396"
   version="1.1"
   id="svg8"
   inkscape:version="1.0.1 (3bc2e813f5, 2020-09-07)"
   sodipodi:docname="header_pattern.svg">
  <defs
     id="defs2" />
  <sodipodi:namedview
     id="base"
     pagecolor="#ffffff"
     bordercolor="#666666"
     borderopacity="1.0"
     inkscape:pageopacity="0.0"
     inkscape:pageshadow="2"
     inkscape:zoom="0.49497475"
     inkscape:cx="1133.1993"
     inkscape:cy="584.2569"
     inkscape:document-units="mm"
     inkscape:current-layer="layer1"
     inkscape:document-rotation="0"
     showgrid="false"
     inkscape:snap-global="false"
     fit-margin-top="0"
     fit-margin-left="0"
     fit-margin-right="0"
     fit-margin-bottom="0"
     inkscape:window-width="1920"
     inkscape:window-height="1001"
     inkscape:window-x="-9"
     inkscape:window-y="-9"
     inkscape:window-maximized="1" />
  <metadata
     id="metadata5">
    <rdf:RDF>
      <cc:Work
         rdf:about="">
        <dc:format>image/svg+xml</dc:format>
        <dc:type
           rdf:resource="http://purl.org/dc/dcmitype/StillImage" />
        <dc:title></dc:title>
      </cc:Work>
    </rdf:RDF>
  </metadata>
  <g
     inkscape:label="Layer 1"
     inkscape:groupmode="layer"
     id="layer1"
     transform="translate(101.54057,1.2174967)">
    <path
       id="path1064"
       style="color:#000000;font-style:normal;font-variant:normal;font-weight:normal;font-stretch:normal;font-size:medium;line-height:normal;font-family:sans-serif;font-variant-ligatures:normal;font-variant-position:normal;font-variant-caps:normal;font-variant-numeric:normal;font-variant-alternates:normal;font-variant-east-asian:normal;font-feature-settings:normal;font-variation-settings:normal;text-indent:0;text-align:start;text-decoration:none;text-decoration-line:none;text-decoration-style:solid;text-decoration-color:#000000;letter-spacing:normal;word-spacing:normal;text-transform:none;writing-mode:lr-tb;direction:ltr;text-orientation:mixed;dominant-baseline:auto;baseline-shift:baseline;text-anchor:start;white-space:normal;shape-padding:0;shape-margin:0;inline-size:0;clip-rule:nonzero;display:inline;overflow:visible;visibility:visible;opacity:1;isolation:auto;mix-blend-mode:normal;color-interpolation:sRGB;color-interpolation-filters:linearRGB;solid-color:#000000;solid-opacity:1;vector-effect:none;fill:#b3b3b3;fill-opacity:1;fill-rule:nonzero;stroke:none;stroke-width:10.8;stroke-linecap:butt;stroke-linejoin:miter;stroke-miterlimit:4;stroke-dasharray:none;stroke-dashoffset:0;stroke-opacity:1;color-rendering:auto;image-rendering:auto;shape-rendering:auto;text-rendering:auto;enable-background:accumulate;stop-color:#000000;stop-opacity:1"
       d="m -285.17383,-4.6015625 c -32.80709,2.2408441 -65.70407,4.44774966 -98.60156,6.8085937 v 6.5371094 c 57.5715,-4.0816633 121.52368,-8.21446527 189.78516,-13.3457031 z m 474.71485,0 C 161.19652,1.6978139 132.34308,7.2742942 102.7168,12.207031 16.800386,26.511976 -70.56223,34.75115 -161.36133,41.507812 c -73.57999,5.475402 -148.08436,9.990402 -222.41406,15.541016 v 6.259766 C -332.0162,59.413148 -280.90788,56.171579 -206.2168,51.003906 -109.89629,44.339768 -0.80900491,35.99399 104.55859,18.597656 143.88428,12.104919 182.08821,4.4807556 219.73242,-4.6015625 Z m 209.44726,0 C 378.87348,2.7606549 358.44235,9.6965297 337.54492,16.201172 257.01173,41.268285 175.61747,58.181846 88.167969,70.402344 1.3571701,82.533645 -87.392188,89.476407 -178.33008,95.767578 c -71.56751,4.951152 -136.91991,9.057892 -205.44531,14.595702 v 6.13281 c 47.5677,-3.86748 97.99092,-7.39666 160.3125,-11.61132 94.994,-6.424264 208.094917,-13.812048 313.339843,-28.396489 C 200.66655,61.1355 303.96873,38.047626 409.46094,-1.1816406 c 3.0418,-1.1311748 6.06869,-2.2722684 9.08789,-3.4199219 z m 150.23242,0 C 476.56964,29.669567 404.07574,56.933418 325.19727,78.335938 243.39876,100.53076 160.50548,114.87352 72.076172,125.27148 c -87.397196,10.27665 -177.753432,16.38893 -268.439452,22.62696 -64.38569,4.42889 -125.38814,8.70362 -187.41211,14.21875 v 5.93164 c 42.91117,-3.85353 89.03292,-7.44341 142.09961,-11.19727 92.00488,-6.50835 211.797748,-13.7278 315.322264,-25.80664 C 185.4674,117.9981 291.21348,98.43528 398.11719,63.136719 456.9678,43.704845 511.4616,21.097751 564.76953,-4.6015625 Z m 124.46094,0 c -41.1676,22.4514895 -82.6624,43.3133465 -126.17969,62.4570315 -76.4697,33.639798 -152.99249,59.199701 -236.3457,78.660151 -168.1488,39.25766 -340.867236,47.98983 -526.55859,61.55079 -57.41693,4.19311 -112.83267,8.62382 -168.37305,14.13086 v 5.73242 c 37.79448,-3.79314 78.27877,-7.36398 122.97656,-10.86133 97.84599,-7.65596 206.155589,-13.64747 316.687502,-24.67383 C 168.51156,171.15962 276.73414,154.7924 385.14062,123.47852 494.49264,91.891492 589.01934,49.553021 687.13867,-4.6015625 Z m 110.41406,0 c -8.60058,5.06660791 -17.27454,10.1362414 -26.06054,15.2109375 -1.8118,1.046476 -3.61649,2.073722 -5.42578,3.113281 L 48.681641,224.39258 c -4.429418,0.40433 -8.859521,0.80806 -13.308594,1.20117 -89.137026,7.87623 -180.088417,13.51525 -270.728517,20.91016 -50.30029,4.10377 -99.48044,8.64451 -148.41992,14.08007 v 5.53516 c 32.21839,-3.62566 66.36516,-7.07065 103.03516,-10.36133 106.43739,-9.36915 199.000098,-14.79945 304.33398,-23.85547 l -98.798828,29.56836 c -31.432292,2.35767 -63.132062,4.70263 -95.160152,7.22071 -72.77061,5.72118 -142.66837,11.98013 -213.41016,20.39843 V 294.5 c 50.4983,-6.08099 105.23727,-11.60439 167.93555,-16.91992 37.582,-3.18618 77.07966,-6.12686 117.330074,-9.13477 l -96.630854,28.91992 c -60.43341,5.19658 -119.8353,11.03429 -181.25391,18.71289 -2.45719,0.30728 -4.92088,0.62666 -7.38086,0.93946 v 5.30664 c 50.89119,-6.55846 103.8215,-12.2491 164.60351,-17.76758 l -109.70898,32.83398 c -18.30342,2.1987 -36.61285,4.53661 -54.89453,7.01368 v 5.22851 c 8.26719,-1.13416 16.59334,-2.26976 25.36914,-3.4082 l -25.36914,7.59375 v 0.008 l 25.42773,-7.60937 c 4.42632,-0.57411 8.91666,-1.14702 13.47266,-1.72071 53.43753,-6.72862 106.26347,-12.24228 167.18945,-17.71484 l -105.01562,31.42578 c -33.87243,3.93468 -67.57843,8.27099 -101.07422,13.08985 v 5.13476 c 21.85519,-3.1812 46.17064,-6.50152 73.15234,-9.86719 l -73.15234,21.89063 v 0.01 l 73.21484,-21.91015 c 9.42762,-1.17585 19.10512,-2.35309 29.16993,-3.53321 49.97831,-5.85996 96.96609,-10.52884 150.58398,-15.27929 l -101.38477,30.18945 c -51.05011,5.71233 -101.427,12.21048 -151.58398,19.85352 v 5.0625 c 32.31118,-4.97828 73.60802,-10.84452 124.93359,-16.98047 l -120.48047,35.87695 h 0.0449 l 120.50586,-35.88476 c 12.97482,-1.55093 26.39102,-3.11405 40.66992,-4.6875 48.52962,-5.34764 91.1068,-9.37506 139.091794,-13.58008 l -98.781254,29.10351 c -64.73888,6.97901 -128.02604,15.03097 -192.04882,25.04883 h 32.64257 c 3.54358,-0.52501 6.43194,-0.96951 10.32032,-1.53516 31.98841,-4.65324 72.50715,-10.11823 123.41406,-15.94921 l -59.34375,17.48437 h 0.0625 l 59.38281,-17.49609 c 15.19903,-1.74059 31.2206,-3.50979 48.34571,-5.30469 51.17801,-5.36402 89.707284,-8.85534 132.910151,-12.61914 l -97.800781,28.32226 c -21.64419,2.25771 -43.11437,4.60567 -64.48828,7.09766 h 40.91797 c 16.00441,-1.75926 33.05363,-3.56395 51.343748,-5.41406 39.912411,-4.03729 84.466137,-8.02278 132.027343,-12.29297 l -62.689453,17.70703 h 0.08984 L 40.02145,404.02582 c 39.608278,-3.55616 81.20605,-7.29944 124.80664,-11.53516 95.62659,-9.28989 200.38924,-21.3261 303.58985,-43.73632 106.85779,-23.2044 203.47613,-55.39863 305.26172,-103.35547 67.49941,-31.80268 128.41129,-66.13649 190.6914,-102.47656 l 7.73633,-2.18555 c 0.0138,-0.008 0.0272,-0.0157 0.041,-0.0234 l -7.73438,2.18555 c 32.70467,-19.08332 65.77949,-38.71191 100.40039,-58.837893 14.8557,-8.636032 29.4738,-17.022025 43.9667,-25.216797 l 27.002,-7.820312 c 0.012,-0.0062 0.025,-0.01142 0.037,-0.01758 l -27.0137,7.822266 c 40.3355,-22.806275 79.5925,-43.940629 119.4356,-63.4296875 h -13.1602 c -22.8055,11.3603902 -45.3866,23.1987365 -67.9629,35.5117185 -20.8422,11.367233 -41.4223,22.989946 -61.8281,34.728516 l -92.9179,26.908203 c 5.66967,-3.370318 11.2653,-6.694167 16.9999,-10.101563 43.4013,-25.787905 84.5071,-49.909384 125.5313,-72.4941401 l 49.3926,-14.5527344 h -0.012 l -49.3614,14.5429687 c 8.9496,-4.9268405 17.9024,-9.76145055 26.8672,-14.5429687 h -12.3281 c -13.315,7.1910426 -26.574,14.5276584 -39.8223,21.9921875 l -97.1367,28.617187 c 29.3467,-17.51093 57.9674,-34.401437 86.5566,-50.6093745 h -11.7812 c -17.5591,10.0347591 -35.0541,20.2548245 -52.6016,30.6464845 -15.0847,8.933253 -29.8152,17.754718 -44.41203,26.515625 L 897.9375,79.761719 c 0.48858,-0.291024 0.97202,-0.573946 1.46094,-0.865235 44.29009,-26.386545 84.89939,-51.263699 125.00776,-75.1445309 l 28.0528,-8.3535156 h -0.016 l -28.0254,8.3457031 c 4.6969,-2.79654801 9.3879,-5.575763 14.0761,-8.3457031 h -11.5195 c -8.448,5.01218271 -16.8976,10.0631436 -25.3457,15.1328125 L 908.08008,38.386719 C 931.88468,24.024777 955.55069,9.6316466 979.125,-4.6015625 H 967.41016 C 952.97754,4.1447556 938.54258,12.923503 924.0332,21.740234 910.97429,29.675578 898.08644,37.466088 885.25195,45.185547 l -99.67968,29.681641 c 1.25189,-0.709645 2.49659,-1.399972 3.75,-2.113282 C 829.94765,49.633591 869.8728,25.51452 909.37109,1.4746094 l 20.30274,-6.0761719 h -0.01 L 909.38086,1.46875 c 3.32591,-2.02427717 6.65302,-4.0479251 9.97266,-6.0703125 h -11.73829 c -7.10082,4.33145201 -14.21852,8.6585801 -21.34179,12.9863281 L 786.78711,38.15625 C 811.02548,24.116437 834.99012,9.7838107 858.73633,-4.6015625 H 846.7832 C 835.72147,2.0866517 824.66379,8.744085 813.60156,15.314453 795.97657,25.782837 778.51934,35.955976 761.09961,45.84375 L 634.22461,83.8125 C 648.74612,76.785224 663.2672,69.487061 677.8457,61.896484 711.7207,44.258714 745.1949,25.396295 778.21289,6.0625 l 35.63086,-10.6640625 h -0.0117 L 778.22266,6.0566406 c 6.04429,-3.5392629 12.07335,-7.0911606 18.08593,-10.6582031 z m 702.5137,0 -56.4629,15.9492185 c -4e-4,0.0022 0,0.0037 0,0.0059 l 56.4864,-15.9550785 z M 886.26172,8.390625 c -5.7891,3.517191 -11.56946,7.037571 -17.38086,10.548828 -36.9227,22.308587 -72.92503,43.554443 -109.26953,63.658203 L 626.14453,122.3418 c 36.03292,-16.50958 71.62424,-34.58531 107.68555,-54.316409 17.80282,-9.740863 35.44316,-19.724749 52.94336,-29.861329 z m 115.35548,2.148437 c -7.45332,4.472732 -14.90757,8.950664 -22.38087,13.462891 -35.47431,21.418849 -69.66079,42.236284 -103.85156,62.404297 l -101.67579,29.95703 c 23.44653,-12.76683 46.93019,-26.117139 70.75391,-40.068358 21.32818,-12.489789 42.51572,-25.175641 63.60352,-37.898438 z M 752.59766,13.728516 C 699.81175,44.058771 648.06789,71.451776 594.07617,95.826172 L 247.27539,199.60938 c -64.66919,10.96459 -130.47518,18.5655 -198.562499,24.78124 z m 357.02144,3.673828 c -6.3519,3.57891 -12.7031,7.177628 -19.0566,10.816406 -40.5691,23.235365 -80.3251,47.085976 -119.85938,70.603516 l -92.0957,26.667964 C 903.53322,111.10252 928.62383,96.219224 954.30273,80.841797 974.23914,68.903139 993.4841,57.35761 1012.4824,46.021484 Z M 885.23633,45.195312 C 838.88072,73.076056 793.56705,99.557289 746.55664,124.36328 l -152.1582,44.82813 c 65.5076,-26.80071 127.43084,-58.19126 191.15625,-94.312504 z m -124.1543,0.658204 c -54.94182,31.185373 -109.5106,59.458714 -167.79492,84.605464 -4.37601,1.88802 -8.75266,3.74099 -13.13086,5.57618 l -275.84766,82.14062 c -71.8543,13.75053 -144.94637,22.89486 -219.564449,30.08008 L 208.14258,211.32812 c 54.42739,-7.99782 108.47209,-18.10884 162.30859,-31.5332 95.1851,-23.73479 179.4573,-55.18156 263.7461,-95.968748 z m 229.16211,6.720703 c -45.454,27.281159 -89.16767,53.767161 -134.51758,79.542971 l -107.09375,31.01367 c 49.9299,-25.39438 98.68273,-53.23272 149.2793,-83.353516 z m 95.02346,13.078125 c -48.0997,27.669959 -95.20317,55.999536 -142.28127,83.296876 l -94.20508,26.60937 C 896.46358,149.48871 943.33642,121.69566 992.3457,92.5625 Z M 759.58984,82.609375 C 723.82561,102.39153 687.72836,121.0674 650.08789,138.54688 607.10914,158.50551 564.19913,175.90979 520.05273,191.0957 l -113.82421,33.53516 c -78.81812,19.56983 -158.90832,32.38753 -243.76563,42.05859 -10.97231,1.25053 -22.01508,2.44597 -33.11328,3.59571 l 129.83008,-38.66211 c 57.4639,-9.3704 114.35591,-21.31559 171.21289,-37.27344 69.7124,-19.56593 133.37434,-43.43016 195.71289,-71.99023 z m 115.76954,3.8125 c -37.28523,21.992845 -74.57409,43.211825 -113.54102,63.562505 -14.4884,7.56672 -28.93354,14.85702 -43.39258,21.89257 L 251.83984,306.99414 c -63.55789,8.52419 -128.28928,14.71311 -194.042965,20.30859 l 99.769535,-29.39648 c 23.24711,-2.46327 46.22919,-5.10441 68.49609,-7.99023 111.0178,-14.38805 215.66219,-35.32513 321.59766,-72.01368 80.92622,-28.02712 153.28523,-61.92057 226.01562,-101.52148 z m -281.31836,9.419922 c -19.11081,8.626853 -38.50071,16.882583 -58.32422,24.753903 -77.59382,30.81038 -155.64247,53.33129 -240.33594,70.16992 -15.95762,3.17268 -31.9694,6.10721 -48.04883,8.83399 z m 376.63281,2.996094 c -32.9754,19.615749 -65.79866,39.004009 -98.78906,57.572269 -15.90807,8.95366 -31.69655,17.62036 -47.46485,26.03125 l -120.86523,34.13867 c 60.8558,-27.37443 117.49523,-57.86682 175.01953,-91.07031 z M 746.51758,124.38281 C 733.2455,131.38567 719.83939,138.26292 706.22852,145 c -74.92574,37.08627 -149.18595,66.62575 -230.44727,89.96875 -81.02498,23.27516 -163.13706,38.69172 -250.88477,50.14648 -13.56612,1.77094 -27.21192,3.42752 -40.9121,5.00782 l 148.75976,-43.82813 c 52.54031,-10.21607 104.55502,-22.93034 156.70313,-39.26172 36.40221,-11.40016 71.10406,-23.99733 104.85546,-37.80273 z m 109.17383,7.75391 c -12.74472,7.24346 -25.61446,14.435 -38.70508,21.57226 -50.62538,27.60186 -100.40472,52.14465 -152.16992,73.8125 l -320.97266,90.66211 c -74.15218,12.51165 -149.69094,20.86589 -227.2832,28.00391 l 105.90234,-30.66992 c 21.96881,-2.66687 43.8066,-5.55296 65.25391,-8.73438 110.06819,-16.32714 212.6855,-40.01349 317.3789,-79.74414 50.4234,-19.13549 97.4577,-40.47458 143.48633,-63.88281 z m -275.58985,3.92187 c -72.23021,30.27277 -144.93581,53.42111 -223.69531,71.26758 -17.267,3.91261 -34.60723,7.5017 -52.01563,10.83399 z m 362.8418,12.91602 c -5.4203,3.14271 -10.84052,6.27619 -16.26172,9.38867 -73.7308,42.33119 -144.08354,79.55753 -221.38867,111.625 -77.0219,31.95005 -154.05392,55.84795 -237.99024,74.23047 -83.54596,18.29707 -168.42558,29.92612 -257.64257,39.35742 -48.36102,5.11234 -97.31308,9.53776 -146.476566,13.90625 l 97.236326,-27.4668 c 79.78511,-7.7738 165.16186,-17.82126 248.44727,-33.83984 107.95888,-20.76412 206.55317,-50.13192 309.1289,-95.55273 45.74733,-20.25695 88.59716,-41.9995 130.73243,-65.03516 z m -224.57617,22.93164 c -59.68902,29.04128 -119.64534,53.62346 -184.15235,74.21875 -79.92869,25.51903 -160.7674,42.96651 -247.63281,55.95312 -11.5056,1.72011 -23.05254,3.34821 -34.63672,4.90235 z M 824.36133,182.4707 C 767.105,213.00932 710.13799,239.99927 648.88281,263.50781 570.9815,293.40482 492.69941,315.13047 407.75781,331.60547 335.09942,345.698 261.28787,355.22467 185,363.07422 l 120.69922,-34.09375 c 14.38329,-2.12579 28.72044,-4.37444 42.94726,-6.7832 109.03907,-18.46164 209.63382,-44.97498 313.19336,-87.63477 14.12618,-5.81911 27.97562,-11.8035 41.61914,-17.93945 z m -304.56836,8.71289 c -33.517,11.52163 -67.74521,21.76865 -103.26563,30.86914 -3.33569,0.85462 -6.67757,1.67779 -10.01757,2.50782 z M 208.0918,211.33594 84.703125,248.25977 C 32.2042,253.31451 -21.066408,257.40826 -75.173828,261.4668 L 23.625,231.89844 c 4.338709,-0.37304 8.660821,-0.74107 13.044922,-1.12696 57.689425,-5.07813 114.763508,-11.11132 171.421878,-19.43554 z m 456.60937,16.23437 c -23.76049,9.9431 -47.93732,19.28403 -72.81055,28.03125 -78.87892,27.73954 -158.43701,47.301 -244.36132,61.96875 -1.16769,0.19918 -2.33934,0.38674 -3.50782,0.58399 z m -405.58984,4.06446 -129.8125,38.65429 c -54.666219,5.66226 -110.717366,10.19791 -166.755861,14.53711 l 97.191406,-29.08594 c 13.551609,-1.2291 27.154342,-2.51572 40.794925,-3.87109 53.603,-5.32604 106.32825,-11.7155 158.58203,-20.23437 z m 73.5,14.68554 -148.70899,43.8125 C 125.75276,296.83871 66.475121,301.97605 6.7734375,306.78516 L 104.22656,277.76562 c 20.4867,-1.96316 40.4549,-4.01442 59.4375,-6.16406 57.4235,-6.50276 113.47873,-14.50045 168.94727,-25.28125 z M 59.693359,255.74414 -37.5,284.83008 c -22.807111,1.76595 -45.611622,3.49942 -68.32031,5.26367 -30.25942,2.35082 -59.88425,4.73957 -89.28516,7.26758 l 96.628908,-28.91992 c 51.366606,-3.8386 104.18054,-7.80085 158.169921,-12.69727 z m 44.484371,22.02539 -97.4550738,29.01953 c -16.1294022,1.29922 -32.2792112,2.58326 -48.4570312,3.85938 -38.440588,3.03216 -75.637875,5.98785 -112.591795,9.15234 l 94.371092,-28.24219 c 52.88458,-4.09285 110.212031,-8.62264 164.132808,-13.78906 z m -164.175777,13.79297 -94.375003,28.24219 c -52.29479,4.47851 -104.09109,9.38975 -158.125,15.65039 -5.44478,0.63088 -10.89072,1.27542 -16.33789,1.92969 l 109.69922,-32.83204 c 21.5503,-1.95646 43.9983,-3.89248 67.8125,-5.83789 27.24661,-2.22579 58.495265,-4.61152 91.326173,-7.15234 z m 217.484377,6.35352 -99.765627,29.39257 c -11.920025,1.01424 -23.867008,2.01216 -35.853515,2.99805 -44.869312,3.69045 -87.464188,7.06348 -129.966798,10.68555 l 92.597657,-27.57422 c 55.166598,-4.38705 114.914291,-9.34972 172.988283,-15.50195 z m -173.039064,15.50586 -92.601566,27.57421 c -46.08339,3.9275 -92.05933,8.14931 -140.67773,13.41211 -11.28737,1.22185 -22.55777,2.48597 -33.81055,3.79297 l 105.00391,-31.42383 c 28.13748,-2.52722 57.83832,-5.04653 90.41992,-7.67187 22.49972,-1.81296 46.640405,-3.69352 71.666016,-5.68359 z m 237.916014,2.10742 -105.89453,30.66601 c -10.46453,0.9625 -20.959087,1.90616 -31.5,2.83203 C 34.802739,353.43386 -10.741528,357.09858 -56.578125,361 L 35.523438,333.86523 C 95.06075,328.92241 159.19585,323.19524 222.36328,315.5293 Z m 83.18164,13.47265 -120.67187,34.08399 c -12.371,1.27252 -24.8012,2.50665 -37.3086,3.70312 -48.749477,4.66348 -97.980811,8.83002 -147.34960625,13.0918 L 93.685547,352.8125 C 161.36687,346.81847 234.03131,339.56633 305.54492,329.00195 Z m -270.097654,4.86914 -92.107422,27.13672 c -41.447199,3.52804 -83.132104,7.24948 -128.742184,11.91407 -15.64684,1.60022 -31.21394,3.26876 -46.72266,5.0039 l 101.375,-30.18945 c 32.566193,-2.8851 67.57058,-5.80032 107.205078,-9.03125 18.9078918,-1.54136 38.752288,-3.15376 58.992188,-4.83399 z M 93.59375,352.82031 0.12109375,379.88867 c -40.74777275,3.51768 -81.58731475,7.09947 -122.33984375,11.09375 -18.64399,1.82737 -37.11395,3.72439 -55.47266,5.70313 l 98.765629,-29.09961 c 35.083808,-3.07423 72.9795177,-6.24157 118.61914,-10.10156 17.462892,-1.47696 35.557701,-3.03978 53.900391,-4.66407 z m 66.70313,17.20899 -97.236333,27.46484 c -40.691794,3.61565 -81.521597,7.19269 -122.333985,11.0918 -20.422488,1.9511 -40.542674,3.96517 -60.521482,6.04883 l 97.787108,-28.31836 c 34.911881,-3.04135 72.629888,-6.24414 124.492192,-10.90039 18.84929,-1.69233 38.16768,-3.47307 57.8125,-5.38672 z"
       transform="scale(0.26458333)" />
  </g>
</svg>
