<svg xmlns="http://www.w3.org/2000/svg" width="37.651" height="30.118" viewBox="0 0 37.651 30.118">
  <path id="Icon_awesome-hands-helping" data-name="Icon awesome-hands-helping" d="M28.709,11.3H19.767V14.59a4.236,4.236,0,1,1-8.472,0V7.436L7.477,9.731a3.757,3.757,0,0,0-1.83,3.224v2.783L.941,18.455a1.878,1.878,0,0,0-.688,2.571L4.959,29.18a1.883,1.883,0,0,0,2.571.688l6.083-3.512h8.036a3.769,3.769,0,0,0,3.765-3.765h.941a1.881,1.881,0,0,0,1.883-1.883V16.943h.471a1.409,1.409,0,0,0,1.412-1.412V12.708A1.409,1.409,0,0,0,28.709,11.3ZM37.4,9.1,32.692.942A1.883,1.883,0,0,0,30.121.253L24.038,3.765H18.025a3.793,3.793,0,0,0-1.994.571L14.06,5.566a1.87,1.87,0,0,0-.882,1.594v7.43a2.353,2.353,0,1,0,4.706,0V9.413H28.709A3.3,3.3,0,0,1,32,12.708v1.677l4.706-2.718A1.885,1.885,0,0,0,37.4,9.1Z" transform="translate(0.002 -0.002)" fill="#09f"/>
</svg>
